<svg width="348" height="300" viewBox="0 0 348 300" fill="none" xmlns="http://www.w3.org/2000/svg">
<path opacity="0.5" d="M131.368 284.152L107.603 295.927C107.603 295.927 97.536 301.195 91.5168 299.749C85.4976 298.303 75.2235 292.622 75.2235 292.622L3.71945 247.073C3.71945 247.073 -2.09219 242.632 0.813631 240.463C3.71945 238.294 19.7015 224.04 19.7015 224.04L133.444 262.153L138.736 274.65C138.736 274.65 139.67 277.336 138.01 279.505C136.142 281.57 131.368 284.152 131.368 284.152Z" fill="#232323"/>
<path d="M83.7334 270.829C83.7334 270.829 76.9877 270.209 75.9499 273.411C75.0159 276.613 74.497 277.749 73.1479 278.369C71.7987 278.989 68.5816 277.439 68.5816 277.439C68.5816 277.439 63.4964 271.655 63.4964 267.937C63.4964 264.115 63.704 259.571 65.6758 258.022C67.6476 256.472 74.8083 255.233 74.8083 255.233C74.8083 255.233 82.5918 259.571 83.7334 261.74C84.8749 263.909 83.7334 270.829 83.7334 270.829Z" fill="#5B6363"/>
<path d="M32.2588 241.289C32.2588 241.289 25.098 240.256 23.7489 242.632C22.3998 245.007 22.6073 247.693 20.8431 247.899C19.0788 248.106 15.0314 246.557 15.0314 246.557C15.0314 246.557 10.7765 239.843 10.5689 237.261C10.3614 234.679 11.1916 229.928 12.8521 228.069C14.6163 226.106 18.4561 223.421 22.296 225.177C26.1358 226.932 31.221 230.134 32.155 232.097C33.089 234.059 33.5042 237.261 33.5042 237.261L32.2588 241.289Z" fill="#5B6363"/>
<path d="M76.6766 280.538C77.8182 284.05 77.7144 290.04 80.1013 290.97C81.4504 291.486 85.1865 288.078 86.5356 287.458C90.4792 285.496 91.3095 278.576 88.6112 272.895C86.1205 267.834 81.7618 265.975 78.7522 268.247C77.1955 269.383 73.4594 271.139 73.1481 273.618C72.9405 275.58 75.8464 278.369 76.6766 280.538Z" fill="#3B3F3F"/>
<path d="M23.9562 250.068C25.0978 253.58 24.994 259.57 27.3809 260.5C28.7301 261.016 32.4661 257.608 33.8153 256.988C37.7589 255.026 38.5891 248.106 35.8908 242.425C33.4001 237.364 29.0414 235.505 26.0318 237.777C24.4751 238.913 20.7391 240.669 20.4277 243.148C20.2202 245.11 23.2298 247.899 23.9562 250.068Z" fill="#3B3F3F"/>
<path d="M138.011 274.341L114.349 287.148C114.349 287.148 107.604 290.97 104.075 291.59C100.443 292.209 95.5654 292.209 91.4142 289.834C87.263 287.458 86.2252 284.876 86.2252 284.876C86.2252 284.876 85.4988 276.716 84.1496 274.444C82.9043 272.172 73.3566 267.111 73.3566 267.111C73.3566 267.111 70.347 266.078 70.0356 268.454C69.9319 269.177 70.0356 274.341 70.0356 274.341C70.0356 274.341 71.281 279.299 68.7903 277.439C66.1958 275.58 36.5149 258.332 36.5149 258.332C36.5149 258.332 34.4393 256.782 33.7128 254.097C32.9864 251.411 32.4675 246.041 30.9108 243.458C29.3541 240.876 20.6366 236.125 20.6366 236.125C20.6366 236.125 18.5611 235.609 18.0422 237.984C17.7308 239.224 18.0422 245.834 18.0422 245.834C18.0422 245.834 18.5611 248.003 15.2401 246.35C11.9192 244.801 6.93777 241.599 6.93777 241.599C6.93777 241.599 5.17352 240.67 4.13572 237.984C3.09793 235.299 1.54124 219.703 2.57903 208.238C3.61683 196.876 7.97556 184.999 7.97556 184.999C7.97556 184.999 16.5892 178.905 32.4675 170.952C46.3739 164.032 51.044 163.825 51.044 163.825C51.044 163.825 54.3649 163.825 61.0068 166.717C63.0824 167.647 76.8851 174.67 89.2348 182.313C101.585 189.956 117.359 204.52 117.359 204.52C117.359 204.52 136.662 239.017 141.125 247.59C145.483 256.163 146.832 261.224 144.757 266.181C142.681 271.139 138.011 274.341 138.011 274.341Z" fill="#E8AB31"/>
<path d="M71.0723 284.566C72.8366 290.04 77.0915 293.448 80.7238 291.589C84.5637 289.627 85.6014 282.706 82.9032 277.026C80.5163 271.861 76.1575 270.002 73.2517 272.275C70.4497 274.34 69.5156 279.608 71.0723 284.566Z" fill="#4A4F4F"/>
<path d="M73.4592 283.636C74.497 286.942 77.1953 289.111 79.3746 287.974C81.7616 286.735 82.3843 282.5 80.7238 278.989C79.2709 275.89 76.5726 274.651 74.8083 276.097C73.0441 277.336 72.4214 280.641 73.4592 283.636Z" fill="#7B8484"/>
<path d="M18.4562 253.993C20.2205 259.467 24.4754 262.876 28.1077 261.017C31.9476 259.054 32.9854 252.134 30.2871 246.453C27.9002 241.289 23.5414 239.43 20.6356 241.702C17.8336 243.768 16.7958 249.036 18.4562 253.993Z" fill="#4A4F4F"/>
<path d="M20.8431 253.064C21.8809 256.369 24.5792 258.538 26.7585 257.402C29.1454 256.162 29.7681 251.928 28.1077 248.416C26.6547 245.317 23.9565 244.078 22.1922 245.524C20.428 246.867 19.8053 250.068 20.8431 253.064Z" fill="#7B8484"/>
<path d="M12.853 223.524C15.7588 225.383 16.6928 225.796 20.5327 227.862C24.3725 229.928 31.8446 234.782 31.8446 234.782C31.8446 234.782 85.7061 264.425 86.5364 265.148C87.2628 265.871 95.0463 268.35 100.131 268.144C104.386 267.937 101.584 260.294 101.584 260.294L113.208 279.505V287.665C111.132 288.801 106.773 290.97 104.179 291.383C100.547 292.003 95.6689 292.003 91.5178 289.627C87.3666 287.252 86.3288 284.669 86.3288 284.669C86.3288 284.669 85.6023 276.51 84.2532 274.237C83.0079 271.965 73.4602 266.904 73.4602 266.904C73.4602 266.904 70.4506 265.871 70.1392 268.247C70.0354 268.97 70.1392 274.134 70.1392 274.134C70.1392 274.134 71.3846 279.092 68.8939 277.233C66.2994 275.374 36.6185 258.125 36.6185 258.125C36.6185 258.125 34.5429 256.576 33.8164 253.89C33.09 251.205 32.5711 245.834 31.0144 243.252C29.4577 240.67 20.7402 235.918 20.7402 235.918C20.7402 235.918 18.6646 235.402 18.1457 237.778C17.8344 239.017 18.1457 245.627 18.1457 245.627C18.1457 245.627 18.6646 247.796 15.3437 246.144C12.0228 244.594 7.04135 241.393 7.04135 241.393C7.04135 241.393 5.17332 240.36 4.13553 237.674C3.30529 235.505 2.16372 221.355 2.2675 211.44C3.40907 213.092 4.34309 216.501 5.17332 217.843C6.73001 220.529 9.42828 221.355 12.853 223.524Z" fill="#F7C546"/>
<path d="M51.5616 163.825C51.5616 163.825 54.8825 163.825 61.5244 166.717C63.6 167.647 76.9876 175.393 89.7524 182.313C103.763 189.956 117.877 204.52 117.877 204.52C117.877 204.52 137.18 239.017 141.642 247.59C146.001 256.163 147.35 261.224 145.274 266.181C143.199 271.242 138.529 274.238 138.529 274.238L114.763 287.148C114.763 287.148 108.018 290.97 104.489 291.59C102.829 291.899 100.961 292.003 99.0926 291.899C103.244 291.176 107.187 283.12 103.97 275.477C102.102 271.139 77.5065 225.487 77.5065 225.487C77.5065 225.487 75.5347 221.562 74.1855 220.426C72.8364 219.393 57.3732 209.271 43.1555 201.628C28.9377 193.984 11.1914 183.966 9.53094 184.379C9.53094 184.379 17.3144 178.905 33.0889 170.952C46.7878 164.032 51.5616 163.825 51.5616 163.825Z" fill="#FFCC5A"/>
<path d="M32.9851 170.952C46.8916 164.032 51.5617 163.825 51.5617 163.825C51.5617 163.825 54.8826 163.825 61.5245 166.717C63.6001 167.647 76.6763 173.534 90.7903 182.313C101.687 189.13 112.48 197.393 116.32 203.074C115.697 204.21 114.867 204.623 114.867 204.623C114.867 204.623 78.9594 220.735 75.0158 221.665C74.7045 221.149 74.2893 220.735 73.978 220.529C72.6289 219.496 57.1657 209.374 42.948 201.731C32.0511 195.844 19.1825 189.027 12.8519 186.031C10.7764 184.792 9.21967 184.482 9.21967 184.482C9.21967 184.482 17.1069 178.905 32.9851 170.952Z" fill="#FFDA8F"/>
<path d="M141.954 271.242C139.774 272.482 138.425 273.205 137.803 270.623C137.595 269.59 137.491 266.801 137.491 266.801C137.491 266.801 137.595 265.252 136.869 265.355C136.246 265.458 117.047 275.477 117.047 275.477C117.047 275.477 116.424 276.2 116.424 276.717C116.424 277.336 116.424 280.951 116.424 280.951C116.424 280.951 116.424 283.224 115.801 284.463C114.763 286.529 112.895 287.665 111.754 288.181C110.612 288.698 108.225 290.35 108.225 290.35L139.359 273.618L141.954 271.242Z" fill="#CE8D25"/>
<path d="M142.265 248.933L141.331 247.177L136.453 251.102L134.481 253.891L114.66 263.599L109.99 265.872L106.876 266.078L99.404 266.801L94.4226 266.388V269.797L97.3284 276.407L100.027 278.473L104.593 279.196L126.387 268.247L145.067 257.092L145.69 256.989L142.265 248.933Z" fill="#CE8D25"/>
<path d="M105.527 277.233C105.527 277.13 102.206 277.853 100.027 276.716C98.6777 276.097 97.3285 274.444 96.9134 273.411C96.4983 272.378 95.5643 269.693 95.5643 269.177C95.5643 268.557 95.5643 267.524 95.5643 267.524L100.027 268.04L100.546 270.106L101.376 272.482L103.348 275.684L105.527 277.233Z" fill="#E55B35"/>
<path d="M130.746 231.167L117.981 209.374C117.981 209.374 108.329 215.158 101.895 217.74C95.4606 220.322 80.6201 226.623 80.6201 226.623L92.3472 249.759C92.3472 249.759 105.32 244.388 114.764 239.946C124.311 235.505 130.746 231.167 130.746 231.167Z" fill="#4F5656"/>
<path d="M100.131 218.877C106.565 216.294 116.216 210.51 116.216 210.51L128.981 232.304C128.981 232.304 126.594 234.163 120.679 237.262C120.679 237.262 111.754 237.985 103.763 232.51C97.7436 228.379 95.8755 220.529 95.8755 220.529C97.536 219.91 98.9889 219.393 100.131 218.877Z" fill="#6A7271"/>
<path d="M88.9224 250.378L76.7802 227.862L70.2421 224.35C70.2421 224.35 68.4779 227.346 67.1288 231.89C65.6758 236.435 65.4683 240.773 65.4683 240.773L85.7053 252.341L88.9224 250.378Z" fill="#444747"/>
<path d="M130.746 231.167L132.51 234.059C132.51 234.059 123.273 239.843 115.282 243.871C106.357 248.416 94.4228 253.167 94.4228 253.167L92.451 249.758C92.451 249.758 105.527 244.284 113.103 240.772C120.679 237.261 130.746 231.167 130.746 231.167Z" fill="#CE8D25"/>
<path d="M83.7332 271.035L86.5353 259.571L90.6864 250.275V250.171L76.2611 223.317L70.2419 219.599L70.1381 219.702C70.1381 219.805 66.5058 225.176 64.8454 232.096C63.2887 238.603 62.1471 246.66 61.8358 251.308C61.5244 255.439 61.8358 266.697 61.8358 266.801V266.904L67.9587 270.312V266.801C67.9587 266.801 67.9587 263.289 68.789 262.566C68.8928 262.463 69.1003 262.359 69.2041 262.463C70.7608 262.772 83.4219 270.932 83.5257 271.035H83.7332ZM90.4789 250.275L86.3277 259.467L83.6294 270.622C82.0727 269.589 70.8646 262.463 69.3079 262.153C69.1003 262.153 68.789 262.153 68.5814 262.359C67.5436 263.186 67.6474 266.697 67.6474 266.904V269.899L62.0433 266.801C62.0433 265.768 61.732 255.439 62.0433 251.411C62.3547 246.866 63.4962 238.81 65.0529 232.2C66.6096 225.899 69.723 220.838 70.2419 220.012L76.0535 223.524L90.4789 250.275Z" fill="#3B3F3F"/>
<path d="M84.6674 251.618C84.6674 251.618 83.6296 254.923 79.7898 254.613C75.9499 254.304 75.6386 253.167 75.6386 253.167C75.6386 253.167 75.7424 250.172 78.4406 248.829C81.1389 247.487 84.6674 246.557 84.6674 246.557L85.4976 247.9L83.6296 248.726L84.6674 251.618Z" fill="#3B3F3F"/>
<path d="M133.236 232.303C133.236 232.303 135.727 232.097 136.142 230.031C136.557 227.965 136.35 226.623 136.35 226.623C136.35 226.623 134.897 225.177 133.651 225.9C131.887 226.933 130.746 227.656 130.746 227.656L133.236 232.303Z" fill="#3B3F3F"/>
<path d="M145.067 255.749L137.802 260.604L134.481 262.256C134.481 262.256 132.925 259.364 133.547 257.815C134.17 256.266 137.076 251.411 137.076 251.411L141.331 248.106C141.331 248.106 141.642 247.796 143.095 250.895C145.171 255.129 144.963 256.059 145.067 255.749Z" fill="#DEDEFF"/>
<path d="M100.027 268.143L108.121 266.904C108.121 266.904 112.895 266.8 114.141 267.523C115.282 268.246 117.047 271.655 117.047 271.655L110.716 274.857L105.527 277.232C105.527 277.232 103.244 276.406 101.895 273.307C100.546 270.209 100.027 268.143 100.027 268.143Z" fill="#DEDEFF"/>
<path d="M134.897 257.814C134.897 259.054 135.831 260.087 137.076 260.087C138.321 260.087 139.255 259.054 139.255 257.814C139.255 256.575 138.321 255.542 137.076 255.542C135.831 255.542 134.897 256.575 134.897 257.814Z" fill="white"/>
<path d="M110.197 270.622C110.197 271.862 111.131 272.894 112.377 272.894C113.622 272.894 114.556 271.862 114.556 270.622C114.556 269.383 113.622 268.35 112.377 268.35C111.235 268.35 110.197 269.383 110.197 270.622Z" fill="white"/>
<path d="M9.53105 219.703C11.1915 219.703 12.5407 218.051 12.5407 215.985C12.5407 213.919 11.1915 212.267 9.53105 212.267C7.87058 212.267 6.52145 213.919 6.52145 215.985C6.52145 218.051 7.87058 219.703 9.53105 219.703ZM9.53105 212.577C11.0877 212.577 12.3331 214.126 12.3331 216.088C12.3331 218.051 11.0877 219.6 9.53105 219.6C7.97436 219.6 6.72901 218.051 6.72901 216.088C6.72901 214.126 7.97436 212.577 9.53105 212.577Z" fill="#444747"/>
<path d="M63.8077 222.698C63.8077 222.698 61.6283 227.552 59.6565 236.125C57.6847 244.698 57.5809 246.557 57.5809 246.557C57.5809 246.557 55.8166 248.106 54.2599 247.177C52.5995 246.247 24.6828 230.444 24.6828 230.444L19.4939 227.449C19.4939 227.449 17.2107 226.003 17.6258 224.041C18.0409 222.078 19.5976 213.196 21.9846 206.585C24.3715 200.078 23.645 198.736 27.5886 198.736L60.0716 217.327C60.0716 217.327 63.4963 219.083 63.8077 220.116C64.119 221.045 63.8077 222.698 63.8077 222.698Z" fill="#D3972D"/>
<path d="M29.1452 200.078C25.2015 200.078 26.0318 201.318 23.5411 207.928C21.1542 214.435 19.5975 223.421 19.1823 225.383C18.9748 226.21 19.2861 226.933 19.7012 227.552L19.5975 227.449C19.5975 227.449 17.3143 226.003 17.7294 224.041C18.1446 222.078 19.7012 213.196 22.0882 206.585C24.4751 200.078 23.7486 198.736 27.6923 198.736L29.1452 200.078Z" fill="#B77A21"/>
<path d="M117.565 204.209C117.565 204.209 116.631 198.529 114.348 195.946C112.065 193.364 108.121 191.608 108.121 191.608L67.9588 209.374C67.9588 209.374 72.8365 211.543 74.3932 214.435C75.8461 217.43 76.2612 222.801 76.2612 222.801L117.565 204.209Z" fill="white"/>
<path d="M68.0627 217.327V209.271C68.0627 209.271 72.8366 211.026 74.0819 213.712C75.2235 216.397 75.4311 216.501 75.7424 218.256C76.0538 220.116 76.3651 222.698 76.3651 222.698L68.0627 217.327Z" fill="#C8C6F7"/>
<path d="M71.4873 251.307C71.4873 251.72 71.4873 256.162 71.4873 256.162L65.3644 252.34C65.3644 252.34 64.6379 250.688 64.6379 249.138C64.6379 247.692 64.6379 246.763 64.6379 246.763L71.4873 251.307Z" fill="#3B3F3F"/>
<path d="M65.6757 250.276L71.4873 253.994V256.266L65.2606 252.445L64.6379 249.243L65.6757 250.276Z" fill="white"/>
<path d="M2.37128 218.256C2.37128 218.256 3.61713 220.838 4.55152 221.665C5.48591 222.491 6.10883 232.716 5.17444 232.303C4.24005 231.89 3.09802 231.167 3.09802 231.167C3.09802 231.167 2.37128 227.139 2.37128 223.937C2.26746 220.838 2.37128 218.256 2.37128 218.256Z" fill="#E55B35"/>
<path d="M5.48575 228.275C5.58957 230.547 5.48575 232.407 4.96665 232.303C4.03226 231.89 2.89023 231.167 2.89023 231.167C2.89023 231.167 2.57877 229.101 2.2673 226.829C3.51315 227.346 4.55136 227.862 5.48575 228.275Z" fill="#DEDEFF"/>
<path opacity="0.5" d="M29.0414 120.651C33.2963 124.68 60.7978 139.14 60.7978 139.14C60.7978 139.14 65.5717 141.205 71.7985 140.379C78.129 139.553 151.397 101.957 151.397 101.957C151.397 101.957 160.634 97.3088 155.86 92.0412C153.369 89.2525 125.868 71.1775 125.868 71.1775L27.5884 108.464L27.0695 116.21L27.6922 118.482L29.0414 120.651Z" fill="#2B2A2A"/>
<path d="M70.8644 119.515C70.8644 119.515 79.6856 120.548 81.2423 122.097C82.799 123.647 83.733 126.022 85.0821 126.642C86.4313 127.262 88.0917 127.055 91.5165 125.609C94.9412 124.163 102.206 115.177 102.206 115.177L88.7144 102.99L69.4115 111.252L70.8644 119.515Z" fill="#191919"/>
<path d="M130.745 90.2846C130.745 90.2846 137.595 88.632 139.359 90.801C141.123 92.97 142.057 95.4489 143.406 95.862C144.755 96.2752 147.765 95.3456 147.765 95.3456C147.765 95.3456 151.916 88.8386 151.916 87.5991C152.02 86.3597 149.944 78.3034 149.944 78.3034L138.944 76.9607L132.406 81.402L130.745 90.2846Z" fill="#191919"/>
<path d="M85.3938 126.642C84.1485 129.638 83.9409 134.905 81.6578 135.628C80.4124 136.041 77.1953 132.839 76.0537 132.116C72.629 130.154 72.2139 124.06 75.0159 119.206C77.5066 114.868 81.6578 113.525 84.2523 115.591C85.6014 116.727 88.9223 118.379 89.0261 120.652C89.1299 122.511 86.2241 124.783 85.3938 126.642Z" fill="#2B2A2A"/>
<path d="M139.774 98.1353C138.529 101.027 138.321 106.192 136.142 106.915C134.896 107.328 131.783 104.126 130.641 103.506C127.32 101.544 126.802 95.6564 129.604 90.9053C132.094 86.6705 136.038 85.3278 138.632 87.3935C139.982 88.5297 143.199 90.1823 143.303 92.3513C143.406 94.1071 140.604 96.3794 139.774 98.1353Z" fill="#2B2A2A"/>
<path d="M89.2336 129.431C87.3656 134.079 83.2144 136.867 79.9972 135.111C76.5725 133.149 76.0536 127.055 78.8557 122.201C81.3464 117.863 85.29 116.417 87.8845 118.586C90.3752 120.548 90.9978 125.196 89.2336 129.431Z" fill="#515151"/>
<path d="M87.158 128.398C86.0164 131.29 83.4219 132.942 81.5539 131.806C79.4783 130.567 79.167 126.848 80.8275 123.853C82.3842 121.168 84.7711 120.341 86.4316 121.581C87.8845 122.82 88.1958 125.712 87.158 128.398Z" fill="#7B8484"/>
<path d="M144.341 101.234C142.473 105.779 138.425 108.567 135.416 106.708C132.095 104.746 131.576 98.8586 134.274 94.0041C136.661 89.7694 140.604 88.3234 143.095 90.3891C145.482 92.5581 146.001 97.1027 144.341 101.234Z" fill="#515151"/>
<path d="M142.265 100.408C141.123 103.196 138.632 104.849 136.764 103.816C134.689 102.68 134.377 98.9617 136.038 96.0697C137.491 93.4875 139.878 92.558 141.434 93.9007C142.991 95.0368 143.302 97.8255 142.265 100.408Z" fill="#7B8484"/>
<path d="M53.1182 130.362C55.7127 132.118 61.5244 134.287 61.5244 134.287C61.5244 134.287 64.9491 135.733 67.6473 134.7C70.3456 133.667 74.9119 131.085 74.9119 131.085L76.6762 123.648C76.6762 123.648 77.5064 119.104 81.5538 116.108C84.5634 113.836 87.573 113.113 87.573 113.113C87.573 113.113 92.0355 112.7 91.5166 118.587C91.3091 121.169 90.9977 122.925 90.9977 122.925C90.9977 122.925 90.7902 125.404 92.9695 124.888C95.1489 124.268 126.49 107.329 126.49 107.329C126.49 107.329 129.396 104.334 130.226 100.719C130.953 97.1037 132.717 90.1835 132.717 90.1835C132.717 90.1835 134.066 86.9816 138.321 85.1225C141.331 83.7798 144.133 84.7093 144.133 84.7093C144.133 84.7093 145.793 86.4652 145.274 90.0802C144.652 93.6952 146.208 95.9675 147.246 95.7609C148.388 95.6576 151.294 94.2116 151.812 92.3525C152.331 90.4934 158.039 75.5169 157.417 72.1085C156.69 68.1836 156.69 66.8409 153.162 64.4653C149.633 62.0897 125.037 49.5921 125.037 49.5921C125.037 49.5921 120.16 47.01 115.282 48.9724C110.404 50.9348 110.404 50.9348 110.404 50.9348L99.5076 45.2541C99.5076 45.2541 94.8376 43.6015 91.7242 45.3574C86.2239 48.3527 61.1092 61.6766 61.1092 61.6766L49.7973 80.268L30.5981 91.5262C30.5981 91.5262 23.126 96.0708 22.7109 102.784C22.5033 105.676 22.3995 108.155 22.3995 108.155C22.3995 108.155 21.8806 112.597 25.4091 114.662C28.8338 116.728 53.1182 130.362 53.1182 130.362Z" fill="#EA4970"/>
<path d="M157.728 72.0033C157.105 68.1817 157.002 66.9423 153.888 64.67L140.708 69.8343L132.613 60.5386L124.83 60.6419L93.281 76.1347L83.4219 99.7872L60.3829 115.693C60.3829 115.693 60.5904 119.618 60.3829 123.75C59.864 132.219 60.3829 130.773 61.732 132.529C63.0812 134.285 68.8928 133.975 68.8928 133.975C71.5911 132.839 74.912 130.876 74.912 130.876L76.6763 123.44C76.6763 123.44 77.5065 118.895 81.5539 115.9C84.5635 113.628 87.5731 112.905 87.5731 112.905C87.5731 112.905 92.0356 112.491 91.5167 118.379C91.3091 120.961 90.9978 122.717 90.9978 122.717C90.9978 122.717 90.7903 125.196 92.9696 124.679C95.149 124.059 126.49 107.121 126.49 107.121C126.49 107.121 129.396 104.125 130.226 100.51C130.953 96.8952 132.717 89.9751 132.717 89.9751C132.717 89.9751 134.066 86.7732 138.321 84.914C141.331 83.5713 144.133 84.5009 144.133 84.5009C144.133 84.5009 145.793 86.2568 145.274 89.8718C144.652 93.4868 146.208 95.7591 147.246 95.5525C148.388 95.4492 151.294 94.0032 151.813 92.1441C152.643 90.2849 158.351 75.3085 157.728 72.0033Z" fill="#C42653"/>
<path d="M153.889 67.1495C153.889 67.1495 155.446 67.8725 156.38 67.0462C155.861 66.5298 154.512 64.774 153.578 64.1542C150.049 61.7787 125.454 49.2811 125.454 49.2811C125.454 49.2811 120.576 46.6989 115.698 48.6613C110.821 50.6238 110.821 50.6238 110.821 50.6238L99.9239 44.9431C99.9239 44.9431 94.3198 43.7036 90.0649 46.0792C84.5646 49.1778 61.4218 61.2622 61.4218 61.2622L49.7985 79.957L30.7031 91.2152C30.7031 91.2152 27.5897 92.971 25.2028 96.2762C25.3066 97.2057 25.4103 97.9287 25.9292 98.4452C27.2784 99.9945 37.1374 106.398 46.7889 111.459C51.3552 113.835 58.516 120.755 59.5538 117.14C60.4878 113.938 84.5646 100.201 84.5646 100.201L84.7721 99.5813L94.0085 78.4077L127.841 60.9524L140.917 72.004L153.889 67.1495Z" fill="#EA4970"/>
<path d="M50.8353 80.8863L62.1472 62.9146L91.8281 79.0271L82.6955 98.5482L50.8353 80.8863Z" fill="#586060"/>
<path d="M87.158 97.4123L94.7339 79.957L109.989 71.7974C109.989 71.7974 110.923 74.6894 111.857 79.7504C112.895 85.4311 112.792 87.3935 112.792 87.3935L89.6487 99.7878C89.6487 99.7878 87.4693 100.304 87.0542 99.9944C85.9126 99.3747 87.158 97.4123 87.158 97.4123Z" fill="#515151"/>
<path d="M113.206 70.0413C113.206 70.0413 114.763 75.5154 115.282 78.614C115.801 81.6093 116.32 85.6374 116.32 85.6374L137.698 74.6891C137.698 74.6891 138.944 73.9661 137.802 72.9333C136.764 71.9004 127.217 62.9146 127.217 62.9146L113.206 70.0413Z" fill="#515151"/>
<path d="M58.4123 132.943C55.5064 131.806 56.5442 128.295 56.5442 128.295L56.8556 123.44L25.2028 105.778C25.2028 105.778 24.8915 108.774 24.8915 111.459C24.8915 114.144 27.9011 116.004 27.9011 116.004C35.2694 120.238 52.8082 130.154 52.8082 130.154C54.2611 131.083 56.5442 132.116 58.4123 132.943Z" fill="#C42653"/>
<path d="M47.7228 81.4031L30.5992 91.4218C30.5992 91.4218 27.4858 93.1777 25.0989 96.4828C25.2027 97.4124 25.3064 98.1354 25.8253 98.6518C27.1745 100.201 37.0335 106.605 46.685 111.666C51.2513 114.041 58.4121 120.962 59.4499 117.347C60.2801 114.558 78.649 103.816 83.3191 101.131C72.7336 95.1401 56.8554 86.3608 47.7228 81.4031Z" fill="#F97393"/>
<path d="M26.5523 97.3091C26.5523 97.3091 36.6189 102.99 42.1192 105.985C47.9308 109.187 61.1108 116.314 61.1108 116.314L56.9596 119.102L25.8258 101.854L26.5523 97.3091Z" fill="#701E36"/>
<path d="M94.2149 78.3037L127.632 61.055C127.632 61.055 127.736 59.9188 125.971 58.8859C125.245 58.4728 118.707 54.9611 111.131 51.0362C110.923 51.1395 110.508 50.7264 110.508 50.7264L99.6114 45.0456C99.6114 45.0456 95.1489 43.1865 89.7524 46.1818C85.0823 48.8672 66.0907 58.8859 62.0433 60.9517C72.1099 66.4258 87.2617 74.4821 94.2149 78.3037Z" fill="#F97393"/>
<path d="M50.9401 80.6793L50.0061 79.6465L49.7985 79.9563L30.7031 91.2145C30.7031 91.2145 27.5897 92.9704 25.2028 96.2755C25.3066 96.8952 25.4103 97.3084 25.5141 97.7215L26.033 97.2051C26.033 97.2051 27.901 93.7967 29.5615 92.9704C31.222 92.0408 48.9683 82.0221 48.9683 82.0221L50.9401 80.6793Z" fill="#EA4970"/>
<path d="M62.1472 62.9146L50.8353 80.8863L60.4867 86.2572C64.5341 86.2572 70.9685 86.3605 74.3932 84.5013C79.6859 81.6093 81.8653 77.5812 79.5822 72.4169L62.1472 62.9146Z" fill="#7E8988"/>
<path d="M92.3469 92.6609L97.7434 95.3463C97.7434 95.3463 98.885 96.2759 98.885 96.689C98.885 97.2055 98.1585 98.9613 97.5358 99.3745C97.5358 99.3745 96.6018 99.8909 96.0829 99.581C95.4603 99.3745 91.4129 96.9989 91.4129 96.9989C91.4129 96.9989 90.7902 97.3088 90.2713 98.0318C89.8562 98.6515 89.5448 99.2712 89.4411 99.2712C89.2335 99.2712 88.9222 99.8909 88.4033 99.4778C87.8844 98.9613 87.8844 98.5482 87.8844 98.5482L92.3469 92.6609Z" fill="#2B2A2A"/>
<path d="M97.8473 95.3463L92.347 92.6609L91.2054 94.2102C92.9697 95.0365 97.2246 97.8252 97.3284 97.8252C97.536 97.8252 97.536 97.3088 97.1209 98.5482C96.9133 99.2712 96.2906 99.3745 95.6679 99.3745C95.7717 99.4778 95.9793 99.4778 95.9793 99.5811C96.602 99.7876 97.4322 99.3745 97.4322 99.3745C98.1587 98.9613 98.7813 97.2055 98.7813 96.689C98.9889 96.2759 97.8473 95.3463 97.8473 95.3463Z" fill="#7E8988"/>
<path d="M50.5238 78.924L48.552 77.5812L47.5142 76.8582C47.5142 76.8582 46.7877 76.1352 46.6839 75.6188C46.5801 75.1024 47.6179 72.8301 47.6179 72.8301C47.6179 72.8301 48.3444 72.3136 48.8633 72.5202C49.3822 72.7268 52.9107 74.9991 52.9107 74.9991L50.5238 78.924Z" fill="#2B2A2A"/>
<path d="M51.873 76.2385L52.9108 74.9991C52.9108 74.9991 49.2785 72.7268 48.8634 72.5202C48.3445 72.3136 47.618 72.8301 47.618 72.8301C47.618 72.8301 46.4764 75.1024 46.684 75.6188C46.7878 76.1352 47.5142 76.8582 47.5142 76.8582L47.2029 75.8254C46.8916 74.5859 48.2407 73.5531 48.2407 73.5531C48.2407 73.5531 48.3445 74.3794 49.1747 74.7925C49.5898 74.8958 50.5238 75.4122 51.873 76.2385Z" fill="#7E8988"/>
<path d="M83.9408 114.351C85.9127 113.318 87.5731 112.905 87.5731 112.905C87.5731 112.905 92.0356 112.492 91.5167 118.379C91.3092 120.961 90.9978 122.717 90.9978 122.717C90.9978 122.717 90.7903 125.196 92.9697 124.679C95.149 124.06 126.49 107.121 126.49 107.121C126.49 107.121 129.396 104.125 130.226 100.51C130.953 96.8953 132.717 89.9752 132.717 89.9752C132.717 89.9752 133.651 87.7029 136.453 85.8438L83.9408 114.351Z" fill="#DB315E"/>
<path d="M61.6281 132.529C62.9772 134.285 68.7889 133.975 68.7889 133.975C71.4871 132.839 74.8081 130.876 74.8081 130.876L76.5723 123.439C76.5723 123.439 77.2988 119.205 81.1386 116.209C77.0912 118.895 70.138 123.646 66.817 124.679C64.1188 125.608 61.6281 123.956 60.5903 122.82C60.0714 130.979 60.2789 130.773 61.6281 132.529Z" fill="#DB315E"/>
<path d="M139.566 84.5009C142.057 83.8812 144.133 84.5009 144.133 84.5009C144.133 84.5009 145.793 86.2567 145.274 89.8717C144.652 93.4867 146.208 95.759 147.246 95.5525C148.388 95.4492 151.294 94.0032 151.812 92.144C152.331 90.2849 158.039 75.3084 157.417 71.9C156.794 68.0784 157.52 69.8343 155.652 66.116L154.303 66.6324C156.067 69.4211 154.614 68.6981 152.435 74.8953C150.775 79.9563 142.68 83.3647 139.566 84.5009Z" fill="#DB315E"/>
<path d="M152.539 63.5338C149.01 61.1583 126.594 49.6935 126.594 49.6935C126.594 49.6935 121.716 47.1114 116.839 49.0738C116.216 49.2804 115.697 49.487 115.282 49.6935C123.273 54.1348 138.84 62.9141 148.388 68.1817L152.85 66.4258C152.85 66.4258 153.473 66.116 154.407 65.2897C153.888 64.8766 153.473 64.1536 152.539 63.5338Z" fill="#F97393"/>
<path d="M155.964 66.5297C155.964 66.5297 153.058 66.4264 153.162 68.4921C153.162 70.5578 154.511 75.6188 155.652 76.4451C156.483 77.0648 156.898 77.0648 156.898 77.0648C156.898 77.0648 158.662 73.3465 157.52 69.9381C156.483 66.5297 155.964 66.5297 155.964 66.5297Z" fill="#D61D1D"/>
<path d="M157.935 71.8999C157.52 72.4163 157.209 72.8295 157.105 72.9328C156.69 73.1393 155.341 73.1393 153.992 72.8295C154.511 74.4821 155.133 76.0313 155.756 76.4445C156.586 77.0642 157.001 77.0642 157.001 77.0642C157.001 77.0642 158.143 74.6886 157.935 71.8999Z" fill="#C8C6F7"/>
<path d="M94.5261 120.548V120.341L94.4224 108.154C94.4224 108.05 94.7337 105.365 92.1392 104.642C89.5447 103.816 87.5729 104.125 87.5729 104.125H87.4691L84.3558 100.304V100.201L94.111 78.2007L111.338 69.3181V69.4214C111.338 69.4214 112.376 73.4496 113.414 78.7171C114.452 83.8814 115.905 96.8955 116.008 97.102L114.971 109.806L94.5261 120.548ZM89.1296 103.919C89.9599 103.919 90.9976 104.125 92.1392 104.435C94.8375 105.262 94.5261 108.154 94.5261 108.154L94.6299 120.135L114.763 109.6L115.801 96.9987C115.801 96.8955 114.348 83.8814 113.206 78.7171C112.272 73.966 111.338 70.2477 111.131 69.628L94.111 78.4073L84.6671 100.201L87.5729 103.919C87.7805 103.919 88.2994 103.816 89.1296 103.919Z" fill="#191919"/>
<path d="M114.763 109.91V109.703L115.801 96.9991C115.801 96.8959 114.14 83.8818 113.206 78.7175C112.376 73.45 111.131 69.5251 111.131 69.4218V69.3185H111.235L127.113 61.1589L140.5 73.8631L139.774 81.9194C139.67 81.9194 134.274 84.8114 132.613 86.5673C131.056 88.1166 129.707 94.2104 129.085 97.7221C128.67 100.614 126.802 102.886 126.698 102.886L114.763 109.91ZM111.442 69.5251C111.65 70.1448 112.688 73.8631 113.518 78.7175C114.348 83.9851 116.008 96.8959 116.112 97.1024L115.074 109.6L126.698 102.99C126.802 102.783 128.566 100.717 128.981 97.9287C129.396 95.4499 130.745 88.4264 132.509 86.6706C134.066 85.018 139.047 82.3325 139.67 82.0227L140.397 74.173L127.113 61.5721L111.442 69.5251Z" fill="#191919"/>
<path d="M28.8339 116.623C28.8339 116.623 25.9281 112.079 27.7961 113.421C31.0133 115.59 52.7032 127.468 52.7032 127.468C52.7032 127.468 51.354 129.534 54.7787 131.187C58.411 132.942 28.8339 116.623 28.8339 116.623Z" fill="#701E36"/>
<path d="M108.64 93.0735L112.376 91.1111C112.376 91.1111 114.141 92.3505 114.037 93.0735C113.933 93.8998 113.31 94.7261 112.065 95.3458C110.82 95.9655 108.433 95.8622 108.329 94.9326C108.121 94.2097 108.64 93.0735 108.64 93.0735Z" fill="#701E36"/>
<path d="M109.263 93.2806C109.263 93.2806 108.64 93.9003 109.471 94.2102C110.301 94.4168 111.442 94.52 112.065 94.2102C113.207 93.6938 113.622 92.6609 113.622 92.6609C113.622 92.6609 113.933 93.1773 113.933 93.5905C113.933 94.1069 113.207 94.7266 112.376 95.1398C111.442 95.6562 109.782 95.9661 109.574 95.9661C109.367 95.9661 108.018 96.4825 107.706 95.6562C107.395 94.8299 108.121 93.1773 108.537 93.074C109.055 93.074 109.263 93.2806 109.263 93.2806Z" fill="#F97393"/>
<path d="M132.613 80.6795L136.557 78.8203C136.557 78.8203 138.321 79.9565 138.217 80.7827C138.113 81.609 137.491 82.4353 136.245 83.1583C135 83.778 132.302 83.4682 132.198 82.6419C131.99 81.609 132.613 80.6795 132.613 80.6795Z" fill="#701E36"/>
<path d="M133.547 80.8861C133.547 80.8861 132.925 81.5058 133.755 81.8156C134.585 82.1255 135.727 82.1255 136.349 81.8156C137.491 81.2992 137.906 80.2664 137.906 80.2664C137.906 80.2664 138.217 80.7828 138.217 81.1959C138.217 81.7124 137.491 82.3321 136.661 82.7452C135.727 83.2616 134.066 83.5715 133.859 83.5715C133.651 83.5715 132.302 84.0879 131.991 83.2616C131.679 82.4354 132.406 80.7828 132.821 80.6795C133.236 80.5762 133.547 80.8861 133.547 80.8861Z" fill="#F97393"/>
<path d="M43.7791 106.295C43.6753 107.328 43.1562 108.051 42.5333 108.051C41.9104 108.051 41.3912 107.225 41.4951 106.192C41.5989 105.159 42.118 104.436 42.7409 104.436C43.3638 104.436 43.7791 105.366 43.7791 106.295Z" fill="#992E48"/>
<path d="M42.9488 106.089C42.8449 107.018 42.4297 107.638 41.8067 107.638C41.2876 107.638 40.8723 106.812 40.8723 105.986C40.9762 105.056 41.3914 104.436 42.0144 104.436C42.6373 104.436 43.0526 105.159 42.9488 106.089Z" fill="#F0F0FF"/>
<path d="M23.0225 100.82C23.0225 100.82 24.0602 97.825 25.2018 96.2758C26.9661 93.9002 27.3812 93.6936 27.3812 93.6936C27.3812 93.6936 31.0135 97.5152 31.8437 100.304C32.7777 102.989 31.0135 104.952 31.0135 104.952L23.0225 100.82Z" fill="#F0F0FF"/>
<path d="M50.2126 115.383C50.2126 115.383 51.6655 112.801 53.1184 112.078C54.5713 111.355 61.0056 111.975 62.6661 112.285C64.3265 112.595 65.987 113.111 66.0908 114.454C66.1946 115.797 65.8832 117.656 65.8832 117.656C65.8832 117.656 65.7795 118.895 64.4303 119.928C62.5623 121.271 60.5905 121.064 60.5905 121.064L50.2126 115.383Z" fill="#F0F0FF"/>
<path d="M61.6282 115.281C60.2791 116.933 59.1375 118.896 58.7224 119.929L60.6942 120.962C60.6942 120.962 62.666 121.065 64.534 119.825C65.8832 118.896 65.9869 117.553 65.9869 117.553C65.9869 117.553 66.2983 115.694 66.1945 114.351C66.0907 113.422 65.2605 112.905 64.1189 112.595C62.8736 113.628 62.0433 114.764 61.6282 115.281Z" fill="#F9762D"/>
<path d="M27.5888 94.2108C27.9001 93.7976 27.6925 93.9009 27.2774 93.4878C26.8623 93.9009 26.3434 94.6239 25.4094 95.7601C24.0602 97.5159 23.0225 100.821 23.0225 100.821L24.164 101.338C24.164 101.338 25.4094 97.1028 27.5888 94.2108Z" fill="#F9762D"/>
<path d="M73.0437 61.8818L89.337 70.6611C90.7899 71.4874 92.5542 71.4874 94.0071 70.7644L98.4696 68.5954C99.4036 68.0789 99.5074 66.7362 98.4696 66.2198L81.9687 57.0274C80.6196 56.3044 79.0629 56.3044 77.7137 57.0274L72.9399 59.5062C72.1096 60.0226 72.0059 61.3654 73.0437 61.8818Z" fill="#586060"/>
<path d="M81.969 57.0274C80.6199 56.3044 79.0632 56.3044 77.714 57.0274L72.9402 59.5062C72.0062 60.0226 72.0062 61.3654 72.9402 61.8818L76.78 63.9475C79.3745 64.6705 83.5257 65.4968 86.4315 64.5672C87.8844 64.0508 89.6487 63.2245 91.3091 62.1917L81.969 57.0274Z" fill="#7E8988"/>
<path d="M97.3288 97.826L98.2632 95.7603C98.2632 95.7603 99.3014 96.4833 98.8861 97.9293C98.6785 98.7556 98.5746 99.1687 97.5364 99.6851C96.4982 100.202 95.7715 99.4786 95.7715 99.4786L97.3288 97.826Z" fill="#F9762D"/>
<path d="M47.5146 76.8575C47.5146 76.8575 47.307 75.2049 47.7223 74.3786C48.1376 73.5523 49.1758 72.6228 49.1758 72.6228L48.0337 72.2096C48.0337 72.2096 47.307 72.1063 46.7879 73.3458C46.2688 74.5852 46.165 75.2049 46.5802 75.9279C46.9955 76.6509 47.5146 76.8575 47.5146 76.8575Z" fill="#F9762D"/>
<path opacity="0.5" d="M324.294 134.079L301.774 145.234C301.774 145.234 292.226 150.192 286.414 148.952C280.603 147.713 270.744 142.652 270.744 142.652L201.73 101.648C201.73 101.648 196.126 97.6194 198.825 95.5537C201.523 93.5912 216.675 80.1641 216.675 80.1641L325.954 113.732L331.143 125.197C331.143 125.197 332.077 127.676 330.417 129.638C328.964 131.6 324.294 134.079 324.294 134.079Z" fill="#232323"/>
<path d="M278.942 125.609C278.942 125.609 271.574 123.543 268.564 125.712C265.555 127.881 267.112 128.501 265.451 129.741C263.791 130.877 259.536 130.464 259.536 130.464C259.536 130.464 252.479 124.06 252.271 123.647C252.064 123.13 252.79 115.9 252.79 115.9L268.876 111.356L279.565 117.14L278.942 125.609Z" fill="#4F5454"/>
<path d="M224.043 90.6995C224.043 90.6995 218.958 89.46 216.675 91.629C214.392 93.798 215.014 95.967 213.042 97.1032C211.071 98.2393 209.099 98.4459 208.684 98.5492C208.269 98.6525 204.636 95.0375 204.533 94.6243C204.325 94.1079 204.636 87.0845 204.636 87.0845L209.929 82.0234L216.986 83.1596L224.043 90.6995Z" fill="#4F5454"/>
<path d="M270.017 133.666C271.055 136.661 271.055 141.825 273.235 142.548C274.48 142.961 277.801 140.069 278.942 139.45C282.367 137.694 283.094 131.807 280.603 126.952C278.32 122.614 274.376 121.065 271.782 123.027C270.433 124.06 267.112 125.506 266.904 127.675C266.696 129.431 269.395 131.807 270.017 133.666Z" fill="#363D3D"/>
<path d="M215.014 100.201C216.052 103.093 216.052 108.051 218.128 108.774C219.269 109.187 222.486 106.295 223.628 105.779C226.949 104.023 227.675 98.3422 225.185 93.6944C223.005 89.5629 219.166 88.0136 216.675 89.9761C215.326 91.0089 212.109 92.4549 211.901 94.5206C211.693 96.0699 214.288 98.3422 215.014 100.201Z" fill="#363D3D"/>
<path d="M329.172 123.854C328.445 123.854 303.019 137.074 303.019 137.074C303.019 137.074 302.604 139.14 301.566 140.483C300.632 141.825 293.99 143.375 290.566 143.685C287.141 143.994 281.433 143.581 280.395 141.516C279.358 139.45 278.216 129.741 276.452 126.952C274.688 124.164 267.008 119.929 265.244 120.445C263.479 120.962 261.3 121.788 261.611 123.544C261.923 125.3 261.715 128.708 261.715 128.708C261.715 128.708 261.508 130.98 259.536 130.567C257.564 130.051 224.458 108.464 224.458 108.464C224.458 108.464 223.421 107.948 222.902 105.159C222.383 102.37 222.279 92.558 219.477 90.8022C216.779 89.0463 212.005 86.5674 212.005 86.5674C212.005 86.5674 209.825 86.8773 209.307 88.6332C208.891 90.389 209.41 97.619 209.41 97.619C209.41 97.619 208.891 99.1683 207.439 98.4453C205.986 97.7223 202.25 95.1402 201.419 93.6942C200.693 92.1449 198.098 87.2904 198.513 83.6754C198.929 80.0604 198.098 75.206 200.278 72.8304C202.457 70.4548 233.798 55.8915 233.798 55.8915C233.798 55.8915 237.223 54.5488 240.648 55.7882C244.073 57.0277 260.055 60.8492 260.781 61.1591C261.508 61.3657 269.81 58.1638 269.81 58.1638C269.81 58.1638 272.923 57.854 274.48 58.6802C275.725 59.3 289.424 64.5675 297 69.1121C298.764 70.145 307.067 75.206 307.067 75.206C307.067 75.206 309.142 77.2717 309.973 78.7177C312.463 82.9524 317.86 90.5956 319.832 91.9383C322.322 93.6942 332.181 98.4453 332.181 98.4453C332.181 98.4453 336.125 103.403 336.644 106.708C337.163 110.013 333.53 118.483 333.53 118.483C333.53 118.483 334.153 119.929 332.493 121.478C330.832 123.027 331.559 125.506 330.728 125.3C330.417 124.887 329.172 123.854 329.172 123.854Z" fill="#005CFF"/>
<path d="M198.721 83.5723C199.136 80.1639 198.41 75.516 200.278 73.1404C200.9 74.07 201.938 74.793 201.938 74.793L220.411 80.7836L239.921 72.9338L271.782 90.5957L277.282 112.906C277.282 112.906 285.792 119.826 290.255 119.826C291.811 119.826 296.377 119.722 296.377 119.722C296.377 119.722 325.54 105.572 328.549 103.403C331.662 101.234 332.597 98.3422 332.597 98.3422C332.597 98.3422 336.436 100.511 337.163 103.816C338.408 109.187 337.37 115.384 337.37 115.384C337.37 115.384 336.644 120.962 334.88 122.511C333.219 124.06 331.974 125.403 331.144 125.197C330.417 124.99 329.172 123.957 329.172 123.957C328.445 123.957 303.019 137.178 303.019 137.178C303.019 137.178 302.604 139.243 301.566 140.586C300.632 141.929 293.991 143.478 290.566 143.788C287.141 144.098 281.433 143.685 280.395 141.619C279.358 139.553 278.216 129.844 276.452 127.056C274.688 124.267 267.008 120.032 265.244 120.549C263.479 121.065 261.3 121.891 261.611 123.647C261.923 125.403 261.715 128.812 261.715 128.812C261.715 128.812 261.508 131.084 259.536 130.671C257.564 130.154 224.458 108.567 224.458 108.567C224.458 108.567 223.421 108.051 222.902 105.262C222.383 102.474 222.279 92.6615 219.477 90.9056C216.779 89.1497 212.005 86.6709 212.005 86.6709C212.005 86.6709 209.825 86.9807 209.307 88.7366C208.891 90.4925 209.41 97.7225 209.41 97.7225C209.41 97.7225 208.891 99.2718 207.439 98.5488C205.986 97.8258 202.25 95.2436 201.419 93.7976C200.9 92.0417 198.306 87.1873 198.721 83.5723Z" fill="#135CDA"/>
<path d="M317.86 91.938C317.86 91.938 313.293 85.431 311.01 82.1258C308.727 78.8207 306.859 76.2385 306.859 76.2385L273.442 92.4544L278.216 110.633C278.216 110.633 278.942 111.769 279.773 111.769C280.603 111.769 317.963 93.1774 317.963 93.1774L317.86 91.938Z" fill="#505454"/>
<path d="M269.706 91.7321C269.395 92.2485 266.385 108.671 266.385 108.671L275.414 113.939C275.414 113.939 271.782 94.3143 270.64 92.5584C269.706 91.1124 269.706 91.7321 269.706 91.7321Z" fill="#444747"/>
<path d="M266.8 90.4922L262.96 106.605L246.044 96.6893L251.752 81.9194L266.8 90.4922Z" fill="#444747"/>
<path d="M249.261 80.784L243.553 95.2441L227.468 85.7418L223.732 83.676C223.732 83.676 221.76 82.5399 223.732 81.1972C225.703 79.8545 239.298 74.7935 239.298 74.7935L249.261 80.784Z" fill="#444747"/>
<path d="M305.717 73.9663L306.132 74.6893L305.717 75.2057L274.168 90.492C274.168 90.492 271.574 91.6282 270.329 90.9052C269.395 90.3887 266.074 88.4263 266.074 88.4263L253.309 81.1963L247.912 78.201L239.195 73.2433L268.564 57.8537C268.564 57.8537 271.055 55.9946 273.442 56.6143C275.829 57.234 276.348 57.7504 276.348 57.7504L300.425 70.6611L305.717 73.9663Z" fill="#6CA1FF"/>
<path d="M254.866 59.5066L215.223 79.131L201.939 74.7929L200.278 73.1404C200.278 73.1404 203.807 70.3517 216.883 64.0512C230.063 57.7508 234.007 55.8916 234.007 55.8916C234.007 55.8916 235.564 54.9621 237.95 55.1686C240.441 55.3752 242.828 55.9949 242.828 55.9949L254.866 59.5066Z" fill="#6CA1FF"/>
<path d="M306.755 76.2385C306.755 76.2385 308.623 78.8207 310.906 82.1258C313.189 85.431 317.756 91.938 317.756 91.938V93.1774C317.756 93.1774 312.463 95.7596 305.821 99.0647L305.614 98.8581C305.614 98.8581 297.83 99.168 290.047 94.4168C285.169 91.4216 283.924 87.1868 283.924 87.1868L306.755 76.2385Z" fill="#7E8988"/>
<path d="M265.14 137.178C266.8 141.826 270.64 144.718 273.857 143.065C277.282 141.309 278.008 135.422 275.621 130.568C273.442 126.23 269.602 124.68 266.904 126.643C264.413 128.399 263.687 132.943 265.14 137.178Z" fill="#434949"/>
<path d="M267.215 136.352C268.253 139.244 270.64 141 272.612 139.967C274.687 138.934 275.206 135.216 273.65 132.324C272.3 129.638 269.913 128.709 268.357 129.845C266.8 130.981 266.281 133.77 267.215 136.352Z" fill="#8D9998"/>
<path d="M210.24 103.196C211.797 107.638 215.533 110.426 218.646 108.877C221.967 107.224 222.694 101.544 220.307 96.7926C218.231 92.5579 214.495 91.1119 211.901 92.971C209.617 94.7269 208.787 99.1682 210.24 103.196Z" fill="#434949"/>
<path d="M212.316 102.37C213.25 105.159 215.533 106.811 217.505 105.882C219.581 104.849 219.996 101.337 218.543 98.445C217.194 95.8629 214.911 94.9333 213.458 96.0694C211.901 97.2056 211.382 99.891 212.316 102.37Z" fill="#8D9998"/>
<path d="M228.713 84.0889C228.713 84.0889 227.987 86.6711 224.873 86.4645C221.76 86.2579 221.552 85.3284 221.552 85.3284C221.552 85.3284 221.552 82.9528 223.732 81.9199C225.911 80.8871 228.713 80.1641 228.713 80.1641L229.336 81.1969L227.883 81.9199L228.713 84.0889Z" fill="#363D3D"/>
<path d="M220.722 92.1453L266.074 120.342C265.762 120.342 265.555 120.342 265.347 120.342C263.583 120.859 261.404 121.685 261.715 123.441C262.026 125.197 261.819 128.605 261.819 128.605C261.819 128.605 261.611 130.877 259.639 130.464C257.667 129.948 224.562 108.361 224.562 108.361C224.562 108.361 223.524 107.845 223.005 105.056C222.486 102.68 222.383 95.4504 220.722 92.1453Z" fill="#4F80FF"/>
<path d="M209.41 88.6327C208.891 90.3886 209.514 97.6186 209.514 97.6186C209.514 97.6186 208.995 99.1679 207.542 98.4449C206.089 97.7219 202.353 95.1397 201.523 93.6937C200.796 92.1444 198.202 87.29 198.617 83.675C198.928 81.0928 198.617 77.891 199.24 75.4121L202.146 80.8863L211.486 86.6703C210.967 86.7736 209.722 87.29 209.41 88.6327Z" fill="#4F80FF"/>
<path d="M293.368 127.985C293.783 125.506 291.707 121.684 291.707 121.684L291.811 121.065C293.472 120.548 295.547 119.928 296.17 119.825L300.217 126.745L297.311 142.445C295.028 143.065 292.33 143.581 290.566 143.788C287.141 144.097 281.433 143.684 280.395 141.619C279.358 139.553 278.216 129.844 276.452 127.055C276.452 127.055 287.867 132.22 289.839 132.323C291.915 132.323 292.953 130.567 293.368 127.985Z" fill="#4F80FF"/>
<path d="M295.754 136.145C296.585 133.046 296.273 127.779 294.717 125.3C293.471 123.234 291.084 121.168 289.839 120.549C291.499 120.136 296.377 119.619 296.377 119.619C296.377 119.619 325.539 105.469 328.549 103.3C331.662 101.131 332.596 98.239 332.596 98.239C332.596 98.239 336.436 100.408 337.162 103.713C338.408 109.084 337.37 115.281 337.37 115.281C337.37 115.281 336.643 120.859 334.879 122.408C333.219 123.957 331.973 125.3 331.143 125.093C330.417 124.887 329.171 123.854 329.171 123.854C328.445 123.854 305.095 135.938 305.095 135.938C305.095 135.938 304.576 138.004 303.642 139.347C302.189 141.413 293.99 143.375 290.565 143.685C294.509 142.136 294.924 139.244 295.754 136.145Z" fill="#005CFF"/>
<path d="M333.945 99.2716C333.945 99.2716 336.229 101.441 333.945 102.68C328.86 105.469 300.529 119.309 300.529 119.309C300.529 119.309 295.651 123.131 289.632 120.652C287.764 119.825 287.66 119.825 284.443 118.07C284.028 117.863 283.301 117.45 282.99 117.347C282.263 116.933 282.575 116.52 282.575 116.52L283.094 115.797L284.028 115.281L325.954 94.9336L332.389 98.342L333.945 99.2716Z" fill="#6CA1FF"/>
<path d="M242.412 116.83L243.346 98.7548L251.233 79.8535L251.129 79.7502L239.817 73.3464H239.713L220.307 81.6093L219.269 85.9473C219.165 86.0506 219.165 86.2572 221.345 88.2196C223.731 90.3886 223.835 93.7971 223.835 93.7971L225.392 106.191H225.496L242.412 116.83ZM250.922 79.9567L243.138 98.6515L242.204 116.21L225.911 105.985L224.354 93.7971C224.354 93.6938 224.25 90.182 221.76 88.013C220.307 86.6703 219.892 86.2572 219.788 86.1539L220.826 82.0225L240.025 73.8629L250.922 79.9567Z" fill="#494F4F"/>
<path d="M258.913 126.746V126.436C258.913 126.333 259.847 114.765 260.988 112.699C262.026 110.737 263.168 111.15 263.272 111.253L263.479 111.356V111.15L268.772 89.8728L268.668 89.7695L251.026 79.6475L243.035 98.6521L242.101 116.624L242.204 116.727L258.913 126.746ZM262.856 110.84C262.338 110.84 261.404 111.15 260.677 112.596C259.639 114.558 258.809 124.37 258.601 126.229L242.516 116.521L243.45 98.8586L251.233 80.2672L268.461 90.0793L263.272 110.943C263.064 110.84 262.96 110.84 262.856 110.84Z" fill="#494F4F"/>
<path d="M236.912 99.7878C237.431 100.511 238.987 101.027 239.921 100.717C240.855 100.511 241.582 99.3747 241.374 98.755C241.167 97.9287 240.336 97.2057 239.61 96.8958C238.883 96.586 238.365 96.4827 237.638 96.6893C236.6 97.1024 236.081 97.9287 236.289 98.6517C236.497 99.5813 236.912 99.7878 236.912 99.7878Z" fill="#515656"/>
<path d="M240.129 100.512C239.817 100.512 236.912 98.6524 236.912 98.6524C236.912 98.6524 235.978 97.7229 236.393 97.2064C236.808 96.69 240.025 98.859 240.025 98.859C240.025 98.859 242.204 99.4787 241.167 100.202C240.232 100.718 240.129 100.512 240.129 100.512Z" fill="#DEDEFF"/>
<path d="M226.845 81.6099L227.883 84.192C227.883 84.192 226.741 86.1544 223.524 85.638C221.863 85.4314 222.382 85.1216 222.382 85.1216C222.382 85.1216 221.76 85.2249 222.797 83.6756C223.005 83.2624 223.628 82.9526 223.939 82.746C225.392 81.9197 226.845 81.6099 226.845 81.6099Z" fill="#7E8988"/>
<path d="M203.495 80.7829V82.7453C203.495 82.7453 203.391 83.9848 201.938 83.4684C201.108 83.1585 199.966 82.6421 199.966 82.6421L199.032 82.0223V79.3369H201.627L203.495 80.7829Z" fill="#1358BC"/>
<path d="M199.655 74.2761L200.693 76.032C200.693 76.032 201.419 76.8583 202.146 77.1681C202.872 77.3747 203.391 77.7878 203.391 77.7878V80.7831C203.391 80.7831 203.391 82.9521 202.249 82.539C201.108 82.1258 200.381 81.816 199.655 81.2996C199.136 80.8864 198.825 80.2667 198.825 80.2667C198.825 80.2667 198.721 76.3418 199.032 75.8254C199.344 75.309 199.655 74.2761 199.655 74.2761Z" fill="#F9762D"/>
<path d="M326.473 108.774L305.095 120.135L299.802 128.915L292.018 130.877L289.632 129.018C289.632 129.018 290.047 132.116 291.188 132.943C292.33 133.769 294.717 135.215 297.207 134.285C305.51 131.393 337.578 114.145 337.578 114.145C337.578 114.145 337.889 111.872 337.785 110.22C337.681 108.567 332.596 107.741 332.596 107.741L326.473 108.774Z" fill="#5F91FF"/>
<path d="M337.474 112.388C337.474 112.388 330.625 116.623 329.587 116.623C328.549 116.623 328.653 116.417 328.03 114.971C327.408 113.525 326.577 108.773 326.577 108.773C326.577 108.773 328.134 107.741 329.483 107.121C330.832 106.501 334.776 104.539 334.776 104.539C334.776 104.539 336.125 104.022 336.125 103.093C336.125 102.163 335.814 101.543 335.814 101.543C335.814 101.543 336.748 103.093 336.955 104.022C337.163 105.055 337.474 107.224 337.578 108.773C337.786 110.323 337.474 112.388 337.474 112.388Z" fill="#EA3636"/>
<path d="M288.905 122.407C288.905 122.407 290.254 123.957 291.5 124.37C293.368 124.886 294.302 124.68 294.302 124.68C294.302 124.68 298.453 123.234 300.736 122.201C302.916 121.271 305.095 120.135 305.095 120.135C305.095 120.135 306.34 123.75 306.444 124.886C306.652 126.332 307.378 127.881 305.51 128.811C303.642 129.741 297.415 132.633 297.415 132.633C297.415 132.633 294.509 132.323 293.264 131.703C291.604 130.773 290.566 130.67 290.566 130.67C290.566 130.67 289.839 130.464 289.32 127.778C288.698 125.196 288.905 122.407 288.905 122.407Z" fill="#EA3636"/>
<path d="M300.736 140.895C301.774 140.379 302.5 139.036 303.123 137.59C303.746 136.041 303.434 131.6 303.434 131.6L329.483 118.379C329.483 118.379 330.728 123.13 331.455 123.543C332.181 123.957 333.323 123.543 333.323 123.543H333.427C332.285 124.576 331.455 125.299 330.832 125.196C330.106 124.989 328.86 123.957 328.86 123.957C328.134 123.957 304.783 136.041 304.783 136.041C304.783 136.041 304.265 138.107 303.331 139.449C302.915 140.069 301.774 140.792 300.321 141.309C300.529 141.102 300.632 140.999 300.736 140.895Z" fill="#1358BC"/>
<path d="M279.669 124.267C279.772 124.267 279.876 124.267 279.876 124.164C280.084 124.061 280.188 123.751 280.188 123.441V120.549C280.188 119.929 279.772 119.206 279.357 119L276.244 117.45C276.036 117.347 275.829 117.347 275.621 117.45C275.414 117.554 275.31 117.863 275.31 118.173V121.065C275.31 121.685 275.725 122.408 276.14 122.615L279.15 124.267C279.461 124.267 279.565 124.267 279.669 124.267ZM275.933 117.45C276.036 117.45 276.14 117.45 276.244 117.554L279.254 119.206C279.669 119.413 279.98 120.032 280.084 120.652V123.544C280.084 123.854 279.98 124.061 279.876 124.164C279.772 124.267 279.565 124.267 279.461 124.164L276.451 122.511C276.036 122.305 275.725 121.685 275.621 121.065V118.173C275.621 117.863 275.725 117.657 275.829 117.554C275.829 117.45 275.829 117.45 275.933 117.45Z" fill="#4F5656"/>
<path d="M329.379 107.018C329.794 106.812 330.313 106.605 330.936 106.295L332.077 111.666L332.596 115.178L331.766 115.591C330.728 116.108 329.794 116.521 329.483 116.521C328.445 116.521 328.549 116.314 327.926 114.868C327.303 113.422 326.473 108.671 326.473 108.671C326.473 108.671 328.03 107.741 329.379 107.018Z" fill="#F9762D"/>
<path d="M327.926 114.971C327.719 114.661 327.615 114.145 327.511 113.525C327.822 113.525 328.134 113.628 328.341 113.628C328.964 113.422 329.379 113.215 329.379 113.215L337.785 108.464C337.785 108.567 337.785 108.774 337.785 108.877C337.889 110.427 337.681 112.182 337.681 112.182C337.681 112.182 330.624 116.52 329.587 116.52C328.445 116.727 328.549 116.417 327.926 114.971Z" fill="#F0EFF9"/>
<path d="M299.906 122.615C300.217 122.512 300.528 122.409 300.736 122.305C302.915 121.376 305.095 120.24 305.095 120.24C305.095 120.24 306.34 123.855 306.444 124.991C306.651 126.437 307.378 127.986 305.51 128.916C304.68 129.329 303.123 130.052 301.566 130.878L299.906 122.615Z" fill="#F9762D"/>
<path d="M290.566 130.773C290.566 130.773 289.839 130.566 289.32 127.881C289.216 127.365 289.113 126.848 289.113 126.332C290.358 127.984 292.122 128.707 292.953 129.017C293.99 129.327 295.755 129.43 297.104 128.914C298.141 128.501 303.953 126.022 306.548 124.886C306.755 126.332 307.482 127.881 305.614 128.811C303.746 129.74 297.519 132.632 297.519 132.632C297.519 132.632 294.821 133.149 293.368 132.735C291.603 132.219 290.566 130.773 290.566 130.773Z" fill="#F0EFF9"/>
<path d="M254.658 110.53C255.177 111.253 256.733 111.769 257.667 111.459C258.601 111.253 259.328 110.117 259.12 109.497C258.913 108.671 258.083 107.948 257.356 107.638C256.63 107.328 256.111 107.225 255.384 107.431C254.346 107.844 253.828 108.671 254.035 109.394C254.346 110.22 254.658 110.53 254.658 110.53Z" fill="#515656"/>
<path d="M257.875 111.15C257.564 111.15 254.658 109.291 254.658 109.291C254.658 109.291 253.724 108.361 254.139 107.845C254.554 107.328 257.771 109.497 257.771 109.497C257.771 109.497 259.951 110.117 258.913 110.84C257.979 111.46 257.875 111.15 257.875 111.15Z" fill="#DEDEFF"/>
<path d="M335.71 109.703L337.786 108.567C337.786 108.67 337.786 108.877 337.786 108.98C337.89 110.53 337.682 112.285 337.682 112.285C337.682 112.285 336.852 112.802 335.813 113.422C335.917 112.905 335.917 112.182 335.813 111.046C335.813 110.53 335.71 110.116 335.71 109.703Z" fill="#C8C6F7"/>
<path d="M289.32 127.882C289.216 127.366 289.113 126.849 289.113 126.333C290.358 127.985 292.122 128.708 292.953 129.018C293.887 129.328 295.443 129.431 296.689 129.018C297 130.361 297.311 131.704 297.519 132.633C297.208 132.633 294.717 133.15 293.471 132.736C291.707 132.117 290.669 130.671 290.669 130.671C290.669 130.671 289.839 130.464 289.32 127.882Z" fill="#C8C6F7"/>
<path d="M191.041 132.839C187.72 132.116 183.776 132.839 179.521 135.318C168.521 141.619 159.7 156.699 159.7 168.886C159.7 173.534 161.049 177.046 163.332 179.318C164.473 180.454 167.172 181.9 168.728 182.313L175.474 186.032L202.56 139.14L195.088 135.112C194.154 133.976 192.701 133.149 191.041 132.839Z" fill="#F39B13"/>
<path d="M215.948 92.1444C208.787 88.3228 196.541 85.3275 179.729 94.7266C161.464 104.849 147.869 124.783 140.293 138.313C136.246 145.44 137.076 152.98 141.85 153.909L144.34 155.252L150.982 158.97L192.598 111.665C197.683 111.252 201.73 112.595 204.636 114.041C207.646 115.59 212.108 113.318 215.325 108.67C216.467 107.018 217.401 105.158 214.495 101.027L226.015 98.5481L215.948 92.1444Z" fill="#F39B13"/>
<path d="M238.053 51.2437C227.675 45.6663 207.646 40.3987 179.522 54.962C148.907 70.8681 127.632 101.751 117.358 119.619C113.31 126.642 114.037 134.182 118.707 135.525C119.018 135.628 121.613 137.178 121.924 137.281L128.981 141.206L161.775 96.483L207.023 68.9056C216.675 68.8023 223.939 71.6943 228.298 74.0699C231.411 75.7225 235.978 73.3469 239.091 68.3892V68.2859C239.195 68.1826 239.195 68.0793 239.299 67.9761L242.204 67.8728L248.016 58.2672L242.308 53.8259L238.053 51.2437Z" fill="#F39B13"/>
<path d="M270.64 16.2297L262.338 10.2391C250.818 2.38938 223.213 -9.59179 178.795 13.2344C178.38 13.441 177.861 13.7508 177.446 13.9574C130.434 38.5394 101.064 81.1965 88.2994 103.196C85.0822 108.671 84.252 113.525 86.5351 116.52L88.8183 118.793L90.1674 119.516C90.6863 119.929 92.7619 120.962 93.3846 121.065L101.064 125.093L114.556 106.398L170.285 42.1544L201.523 25.3188C227.156 18.2954 243.657 25.732 251.233 30.793C254.139 32.7554 258.705 30.5864 261.922 25.732C263.479 23.3564 264.413 20.7743 264.828 18.3987L270.64 16.2297Z" fill="#F39B13"/>
<path d="M270.017 31.8259C266.904 36.6804 262.441 38.7461 259.535 36.8869C250.195 30.5865 226.637 20.4645 188.447 40.7085C188.031 40.9151 187.616 41.1217 187.305 41.3282C147.246 63.1216 122.962 99.4782 112.895 117.037C109.678 122.718 104.489 126.126 100.649 125.093C95.8754 123.854 95.1489 116.211 99.1963 109.187C111.754 87.2905 140.708 44.9432 186.994 20.2579C187.409 20.0513 187.928 19.7415 188.343 19.5349C232.138 -3.29127 259.328 8.38004 270.744 16.2298C274.168 18.6053 273.857 25.9386 270.017 31.8259Z" fill="#FFE465"/>
<path d="M247.808 73.9656C244.695 78.9234 240.129 81.2989 237.119 79.6464C229.232 75.3084 212.316 69.7309 188.862 82.3318C188.55 82.4351 188.343 82.6417 188.032 82.7449C164.577 95.6557 148.492 119.825 140.812 133.252C137.699 138.726 132.717 142.031 128.981 141.101C124.311 139.862 123.688 132.322 127.632 125.402C137.802 107.637 158.766 77.0642 188.966 61.0549C218.024 45.7686 238.365 52.5854 248.12 58.1629C251.856 60.4352 251.752 67.7685 247.808 73.9656Z" fill="#FFE465"/>
<path d="M151.812 159.281C147.039 158.351 146.208 150.811 150.152 143.788C157.728 130.257 171.115 110.53 189.069 100.408C205.674 91.1119 217.816 94.0039 224.769 97.7222C228.713 99.8912 228.505 107.844 224.147 114.145C220.93 118.792 216.571 121.065 213.561 119.515C208.684 117.037 200.277 114.971 189.173 121.271C177.446 127.985 168.21 141.929 163.021 151.328C160.115 156.802 155.445 160.004 151.812 159.281Z" fill="#FFE465"/>
<path d="M208.268 150.915C208.372 162.792 199.862 177.562 189.173 183.966C178.38 190.473 169.558 186.032 169.455 173.947C169.351 161.863 178.172 146.886 188.965 140.586C199.654 134.389 208.268 139.037 208.268 150.915Z" fill="#FFE465"/>
<path opacity="0.3" d="M199.343 266.595C204.325 271.449 236.289 288.491 236.289 288.491C236.289 288.491 241.789 290.867 249.054 289.834C256.318 288.698 340.483 241.6 340.483 241.6C340.483 241.6 351.173 235.816 345.465 229.515C342.455 226.21 310.491 204.623 310.491 204.623L198.928 257.299L197.06 261.121L197.787 263.909L199.343 266.595Z" fill="#696772"/>
<path d="M245.629 265.149C245.629 265.149 255.799 266.285 257.668 268.041C259.536 269.797 260.677 272.792 262.234 273.515C263.791 274.238 272.093 274.031 276.97 270.107C280.395 267.318 281.848 259.158 281.848 259.158L265.97 244.698L243.865 255.13L245.629 265.149Z" fill="#4F5454"/>
<path d="M309.35 232.82C309.35 232.82 317.237 230.651 319.313 233.337C321.388 235.919 322.426 238.914 323.983 239.43C325.539 239.947 328.964 238.707 328.964 238.707C328.964 238.707 333.634 230.651 333.738 229.205C333.842 227.759 331.247 217.947 331.247 217.947L318.482 216.501L311.01 221.975L309.35 232.82Z" fill="#4F5454"/>
<path d="M262.545 273.515C261.092 277.13 260.988 283.637 258.394 284.567C256.941 285.083 253.205 281.262 251.856 280.435C247.808 278.06 247.29 270.623 250.403 264.736C253.309 259.365 257.979 257.712 260.988 260.191C262.545 261.534 266.385 263.497 266.593 266.182C266.8 268.351 263.479 271.14 262.545 273.515Z" fill="#363D3D"/>
<path d="M319.831 242.22C318.482 245.835 318.275 252.135 315.784 252.962C314.331 253.478 310.699 249.657 309.35 248.934C305.406 246.661 304.887 239.431 308 233.544C310.802 228.38 315.369 226.624 318.378 229.103C319.935 230.445 323.671 232.408 323.879 234.99C323.879 237.159 320.661 239.948 319.831 242.22Z" fill="#363D3D"/>
<path d="M267.008 276.924C264.932 282.708 260.159 286.117 256.526 283.948C252.583 281.572 251.856 274.239 254.97 268.248C257.772 262.877 262.338 261.122 265.348 263.6C268.253 265.976 268.98 271.657 267.008 276.924Z" fill="#434949"/>
<path d="M264.621 275.581C263.272 279.092 260.47 281.261 258.187 279.919C255.8 278.473 255.385 273.928 257.253 270.21C258.913 266.905 261.819 265.872 263.687 267.421C265.347 268.867 265.762 272.379 264.621 275.581Z" fill="#7B8484"/>
<path d="M325.124 245.938C323.048 251.515 318.482 254.924 314.85 252.755C311.01 250.483 310.283 243.253 313.397 237.365C316.095 232.098 320.661 230.342 323.567 232.821C326.265 235.196 326.992 240.774 325.124 245.938Z" fill="#434949"/>
<path d="M322.737 244.803C321.492 248.211 318.69 250.277 316.406 249.037C314.019 247.591 313.604 243.15 315.472 239.638C317.133 236.436 319.935 235.404 321.699 236.85C323.463 238.296 323.879 241.704 322.737 244.803Z" fill="#7B8484"/>
<path d="M242.516 283.844C242.516 283.844 241.478 283.741 216.364 269.694C202.25 261.844 197.476 255.957 197.476 255.957L196.23 253.788L191.353 242.323C191.353 242.323 186.268 234.784 193.117 230.136C194.985 228.896 207.023 221.563 207.023 221.563L214.599 201.835C215.326 199.873 216.779 198.324 218.543 197.394L250.507 181.075C252.998 179.835 255.904 179.939 258.29 181.385L274.272 190.99L279.565 191.3L295.443 186.756C295.443 186.756 300.114 186.962 303.746 188.511C306.237 189.544 341.003 207.309 341.003 207.309L301.359 231.272L255.8 249.76L243.554 272.586L242.516 283.844Z" fill="#835EDB"/>
<path d="M251.752 244.699L257.46 222.906L294.198 202.042L312.878 213.714L341.106 207.31C341.106 207.31 344.22 210.718 343.597 215.056C343.597 215.056 343.597 223.422 342.248 226.521C340.899 229.62 339.861 229.826 338.512 231.169C337.163 232.512 334.464 235.094 330.313 237.573C328.03 238.915 326.369 236.85 326.058 236.54C325.747 236.23 327.615 227.657 324.398 226.934C321.077 226.211 312.567 231.066 311.944 235.713C310.803 244.699 309.869 249.864 309.869 249.864C309.869 249.864 308.623 252.446 304.991 254.615C301.359 256.784 275.829 270.211 275.829 270.211L271.989 271.657C271.989 271.657 268.045 271.347 267.942 268.455C267.838 265.563 268.461 261.742 268.461 260.915C268.461 260.089 266.593 255.234 263.479 256.267C260.366 257.3 254.45 261.328 252.894 264.22C251.337 267.112 250.507 277.544 250.507 277.544C250.507 277.544 251.026 280.849 246.459 282.915C241.478 285.084 239.299 281.056 237.949 277.338C236.393 273.103 234.421 267.939 233.798 265.873C232.449 261.018 231.723 257.094 234.94 254.821C241.063 250.173 251.752 244.699 251.752 244.699Z" fill="#653BB7"/>
<path d="M209.202 221.149L217.09 202.248L254.658 222.905L249.054 243.665L209.202 221.149Z" fill="#505454"/>
<path d="M209.202 221.047L224.147 229.516C225.392 229.723 237.638 230.343 240.025 224.662C242.412 218.981 239.817 217.019 236.289 212.681L217.09 202.042L209.202 221.047Z" fill="#7E8988"/>
<path d="M254.139 244.699L259.743 223.628L275.725 214.333C275.725 214.333 276.867 216.708 278.216 223.112C279.565 229.309 279.461 232.098 279.461 232.098L254.969 245.525L254.139 244.699Z" fill="#444747"/>
<path d="M278.942 212.783C278.942 212.783 281.537 219.29 282.16 222.595C282.678 225.797 283.301 230.032 283.301 230.032L308.208 217.638C308.208 217.638 310.284 215.675 309.35 214.539C308.416 213.3 307.17 212.68 307.17 212.68L294.198 204.417L278.942 212.783Z" fill="#444747"/>
<path d="M259.95 247.487L264.205 245.112C264.205 245.112 266.281 246.558 266.177 247.487C266.073 248.417 265.347 249.45 263.998 250.276C262.545 251.102 259.847 250.896 259.639 249.863C259.432 248.933 259.95 247.487 259.95 247.487Z" fill="#3F2877"/>
<path d="M264.309 246.455C264.309 246.455 265.244 246.868 264.621 247.487C263.894 248.107 262.857 248.727 262.13 248.727C260.781 248.624 259.847 247.797 259.847 247.797C259.847 247.797 259.743 248.52 260.055 249.037C260.366 249.553 261.404 249.966 262.338 250.07C263.479 250.173 265.244 249.76 265.347 249.553C265.451 249.45 267.112 249.347 267.008 248.314C266.904 247.281 265.347 245.732 264.932 245.938C264.413 246.041 264.309 246.455 264.309 246.455Z" fill="#A194ED"/>
<path d="M287.452 231.995L292.019 229.619C292.019 229.619 294.094 230.962 293.991 231.891C293.887 232.821 293.16 233.957 291.811 234.783C290.358 235.61 287.245 235.197 287.037 234.164C286.83 233.131 287.452 231.995 287.452 231.995Z" fill="#3F2877"/>
<path d="M233.902 266.285C234.421 268.247 236.497 273.515 238.053 277.749C239.403 281.364 241.582 285.496 246.563 283.327C251.13 281.364 250.611 277.956 250.611 277.956C250.611 277.956 251.441 267.524 252.998 264.632C254.554 261.74 260.47 257.712 263.583 256.679C266.697 255.646 268.565 260.501 268.565 261.327C268.565 262.153 267.942 265.975 268.046 268.867C268.149 271.759 272.093 272.069 272.093 272.069L275.933 270.623C275.933 270.623 301.463 257.195 305.095 255.026C308.727 252.857 309.973 250.275 309.973 250.275C309.973 250.275 310.907 245.111 312.048 236.125C312.671 231.477 321.181 226.623 324.502 227.346C327.823 228.069 325.955 236.641 326.162 236.951C326.473 237.261 328.134 239.327 330.417 237.984C334.672 235.505 338.201 233.13 339.55 231.787C340.899 230.444 341.003 230.031 342.352 226.933C343.701 223.834 343.701 215.468 343.701 215.468C344.324 211.13 341.21 207.721 341.21 207.721L340.38 207.928C340.795 209.581 341.003 210.923 341.003 211.853C340.795 215.984 332.908 219.703 332.908 219.703C332.908 219.703 256.941 258.641 250.714 262.153C245.733 264.942 245.422 266.904 241.063 265.975C236.6 265.045 235.148 255.026 235.148 255.026C231.827 257.505 232.553 261.43 233.902 266.285Z" fill="#7F45DB"/>
<path d="M271.055 268.351V268.144L271.574 259.571C271.574 259.571 272.197 257.402 269.706 254.51C267.319 251.618 265.659 251.412 260.47 253.477C258.705 254.2 255.799 256.06 255.799 256.06L255.696 256.163L252.271 245.731L258.186 222.285L276.659 211.75V211.853C276.659 211.853 277.904 215.468 279.461 221.562C281.018 227.656 281.433 231.374 281.433 231.374L283.405 247.59L282.678 261.947L271.055 268.351ZM271.885 259.571L271.366 267.938L282.678 261.844L283.405 247.59L281.433 231.374C281.433 231.374 280.914 227.656 279.461 221.562C278.112 216.088 276.97 212.68 276.763 212.06L258.602 222.388L252.686 245.731L256.007 255.853C256.526 255.543 259.017 253.994 260.677 253.271C265.866 251.205 267.63 251.412 270.121 254.304C272.404 257.299 271.885 259.365 271.885 259.571Z" fill="#494F4F"/>
<path d="M282.575 262.05L283.301 247.487C283.301 247.281 281.018 229.309 280.084 224.351C279.046 219.393 276.659 211.957 276.659 211.853V211.75H276.763L294.302 201.835H294.405L313.086 213.506L313.708 215.159L315.576 225.487H315.473C315.473 225.487 312.255 228.173 311.114 229.515C310.076 230.755 309.246 233.543 308.519 237.985C307.585 243.459 306.859 248.004 306.859 248.004V248.107L282.575 262.05ZM276.867 211.957C277.178 212.783 279.357 219.703 280.291 224.351C281.329 229.309 283.509 247.384 283.612 247.59L282.99 261.741L306.859 248.107C306.963 247.59 307.585 243.252 308.519 238.088C309.246 233.543 310.18 230.755 311.114 229.515C312.152 228.276 314.954 225.797 315.473 225.487L313.605 215.365L312.982 213.816L294.405 202.145L276.867 211.957Z" fill="#494F4F"/>
<path d="M291.603 230.962C291.603 230.962 292.537 231.375 291.915 231.995C291.188 232.614 290.151 233.234 289.424 233.234C288.075 233.131 287.141 232.304 287.141 232.304C287.141 232.304 287.037 233.027 287.349 233.544C287.66 234.06 288.698 234.473 289.632 234.577C290.773 234.68 292.537 234.267 292.641 234.06C292.745 233.957 294.406 233.854 294.302 232.821C294.198 231.788 292.641 230.239 292.226 230.445C291.811 230.445 291.603 230.962 291.603 230.962Z" fill="#A194ED"/>
<path d="M232.346 266.802L234.941 254.717L244.073 249.14L204.429 226.624C200.901 228.793 196.646 231.375 195.608 231.994C188.759 236.642 191.249 242.22 191.249 242.22L195.401 246.971L232.346 266.802Z" fill="#9681EA"/>
<path d="M258.705 221.872L294.613 201.525L280.81 193.675L274.687 190.473L258.705 180.867C256.318 179.421 253.413 179.318 250.922 180.558L218.958 196.877C218.128 197.29 217.401 197.91 216.778 198.529L258.705 221.872Z" fill="#9681EA"/>
<path d="M303.953 188.408C302.708 187.892 301.255 187.479 300.01 187.272C297.623 187.789 295.962 188.305 295.962 188.305L283.301 192.643L317.133 212.577L335.813 208.343L336.644 204.831C331.974 202.559 306.236 189.441 303.953 188.408Z" fill="#9681EA"/>
<path d="M337.993 205.76C337.993 205.76 337.059 207.309 337.578 208.239C338.097 209.168 339.238 215.469 339.238 215.469C339.238 215.469 340.587 218.671 342.144 217.225C343.701 215.779 343.805 213.3 343.493 211.957C342.974 209.478 341.21 207.516 341.21 207.516L337.993 205.76Z" fill="#F9762D"/>
<path d="M247.497 193.262L266.489 203.591C268.149 204.52 270.225 204.52 271.885 203.591L276.97 200.802C278.112 200.182 278.112 198.529 276.97 197.91L257.771 187.271C256.215 186.445 254.45 186.445 252.894 187.271L247.497 190.37C246.356 190.886 246.356 192.642 247.497 193.262Z" fill="#505454"/>
<path d="M257.771 187.169C256.215 186.342 254.45 186.342 252.894 187.169L247.497 190.267C246.356 190.887 246.356 192.539 247.497 193.159L251.96 195.535C254.865 196.361 259.743 197.394 263.168 196.154C264.828 195.535 266.904 194.399 268.772 193.159L257.771 187.169Z" fill="#7E8988"/>
<path d="M200.693 249.656L194.051 245.215L197.372 252.548L234.11 273.618L231.1 266.079L233.902 265.769L224.666 262.773L200.693 249.656Z" fill="#653BB7"/>
<path d="M205.778 262.877C205.778 262.877 204.117 262.361 203.287 257.92C202.457 253.478 204.844 253.582 204.844 253.582L222.175 264.736C222.175 264.736 221.449 266.286 221.967 268.971C222.486 271.657 226.43 275.168 226.43 275.168L214.08 268.351L205.778 262.877Z" fill="#653BB7"/>
<path d="M199.344 241.807L228.506 257.403L223.42 262.154L194.051 246.041L199.344 241.807Z" fill="#765ACC"/>
<path d="M224.666 262.773L234.421 267.938C234.421 267.938 238.572 266.285 238.987 262.773C239.61 257.919 239.61 253.168 236.289 253.684C233.072 254.201 231.308 256.163 231.308 256.163C231.308 256.163 224.354 255.647 222.59 258.848C220.826 261.947 224.666 262.773 224.666 262.773Z" fill="#D61D1D"/>
<path d="M192.598 245.112C195.192 246.661 200.07 249.347 200.07 249.347C200.07 249.347 201.108 249.656 201.212 248.004C201.315 245.732 200.589 241.6 195.711 238.088C194.985 237.572 194.466 237.159 194.155 236.952C194.155 236.849 193.428 234.473 190.937 232.511C190.834 232.408 190.73 232.408 190.626 232.304C187.513 236.849 191.249 242.22 191.249 242.22L192.598 245.112Z" fill="#D61D1D"/>
<path d="M201.212 248.21C201.212 247.487 201.316 247.074 201.108 246.145C197.787 244.286 192.598 240.98 190.107 239.638C190.626 241.29 191.353 242.426 191.353 242.426L192.598 245.422C195.193 246.971 200.07 249.656 200.07 249.656C200.07 249.656 201.108 249.863 201.212 248.21Z" fill="#C8C6F7"/>
<path d="M212.836 251.618C213.147 252.754 212.836 253.89 212.213 254.097C211.486 254.304 210.656 253.581 210.344 252.444C210.033 251.308 210.344 250.172 210.967 249.966C211.59 249.656 212.42 250.482 212.836 251.618Z" fill="#3F2877"/>
<path d="M211.798 251.722C212.109 252.755 211.798 253.788 211.175 253.994C210.552 254.201 209.825 253.478 209.514 252.445C209.202 251.412 209.514 250.379 210.137 250.173C210.76 249.966 211.486 250.586 211.798 251.722Z" fill="#F0F0FF"/>
<path d="M197.268 243.872L201.315 246.248C201.004 243.975 199.655 240.98 195.919 238.191C195.192 237.675 194.673 237.262 194.362 237.055C194.362 237.055 194.362 237.055 196.023 239.534C197.787 242.013 197.268 243.872 197.268 243.872Z" fill="#F9762D"/>
<path d="M231.411 255.853C231.411 255.853 224.458 255.337 222.694 258.539C221.864 260.088 222.279 261.018 222.901 261.637L227.468 260.501C227.468 260.501 228.921 257.919 230.789 257.403C232.657 256.886 232.657 256.886 232.657 256.886C232.657 256.886 233.383 255.75 234.836 254.717C236.393 253.684 237.015 253.788 237.015 253.788C233.694 253.581 231.411 255.853 231.411 255.853Z" fill="#F9762D"/>
<path d="M237.638 261.122C235.563 262.671 233.591 262.877 233.591 262.877L223.524 257.92C223.213 258.23 223.005 258.436 222.798 258.849C221.345 261.225 223.732 262.154 223.732 262.154L234.525 267.938C234.525 267.938 238.676 266.286 239.091 262.774C239.195 261.638 239.299 260.605 239.402 259.572C238.78 260.089 238.261 260.708 237.638 261.122Z" fill="#C8C6F7"/>
<path d="M216.363 223.318L240.233 236.745C240.233 236.745 240.959 237.468 241.582 236.849C242.204 236.229 241.685 235.403 241.685 235.403L217.816 222.182C217.816 222.182 216.986 221.459 216.467 222.079C215.844 222.802 216.363 223.318 216.363 223.318Z" fill="#D61D1D"/>
<path d="M216.363 221.976L240.233 235.403C240.233 235.403 240.959 236.126 241.582 235.506C242.204 234.886 241.685 234.06 241.685 234.06L217.816 220.839C217.816 220.839 216.986 220.116 216.467 220.736C215.948 221.356 216.363 221.976 216.363 221.976Z" fill="#F9762D"/>
<path d="M307.17 216.604L309.35 210.923L309.557 210.407L309.869 209.994H310.388H311.01L317.445 213.712C317.445 213.712 318.482 216.088 317.86 217.017C317.237 217.947 316.095 218.876 314.954 218.36C313.812 217.844 310.076 215.261 310.076 215.261L308.104 217.637L307.17 216.604Z" fill="#363D3D"/>
<path d="M309.972 214.435L311.218 210.924L316.199 213.816C316.199 213.816 316.926 215.365 316.303 216.088C315.68 216.914 314.642 217.017 314.642 217.017L309.972 214.435Z" fill="#7E8988"/>
<path d="M316.407 218.361C316.407 218.361 317.133 217.741 317.549 216.295C317.964 214.849 317.549 213.713 317.549 213.713C317.549 213.713 318.898 215.056 318.587 216.502C318.068 218.567 316.407 218.361 316.407 218.361Z" fill="#F9762D"/>
<path d="M248.95 259.984C247.393 259.881 246.252 258.538 246.356 256.989C246.459 255.336 247.705 254.097 249.261 254.2C250.818 254.304 251.96 255.646 251.856 257.196C251.856 258.848 250.507 260.088 248.95 259.984ZM249.261 254.407C247.809 254.304 246.667 255.44 246.563 256.989C246.459 258.435 247.601 259.674 248.95 259.778C250.403 259.881 251.545 258.745 251.648 257.196C251.752 255.75 250.714 254.51 249.261 254.407Z" fill="#475151"/>
<path d="M203.183 255.647C203.183 256.163 203.183 256.783 203.391 257.506C204.221 261.947 205.881 262.464 205.881 262.464L207.334 263.393C206.4 259.572 206.815 257.609 206.815 257.609L203.183 255.647Z" fill="#3F2877"/>
<path d="M229.958 277.233C229.958 277.233 227.156 273.928 226.637 271.966C226.118 270.003 226.326 269.177 226.326 269.177L221.033 266.182C221.033 266.182 221.241 267.214 222.382 270.003C223.939 273.825 226.43 275.168 226.43 275.168L229.958 277.233Z" fill="#765ACC"/>
</svg>
